<?xml version="1.0" encoding="UTF-8"?>
<svg version="1.1" xmlns="http://www.w3.org/2000/svg" width="512" height="512">
    <path
        d="M0 0 C1.26481201 -0.0157608 2.52962402 -0.03152161 3.83276367 -0.04776001 C5.20492426 -0.0388099 6.57707687 -0.02855483 7.94921875 -0.01708984 C9.36499447 -0.02046076 10.78076736 -0.02531568 12.1965332 -0.03158569 C15.1589726 -0.03894429 18.12065649 -0.02828592 21.08300781 -0.00488281 C24.87309401 0.02360643 28.66140998 0.00719672 32.45143127 -0.02274513 C35.37354783 -0.04084675 38.29524732 -0.03504742 41.21737671 -0.02210617 C42.61437186 -0.01877997 44.01140536 -0.02283166 45.40835571 -0.03450394 C47.36337522 -0.04725582 49.31852818 -0.0243601 51.2734375 0 C52.93959106 0.00596695 52.93959106 0.00596695 54.6394043 0.01205444 C58.64711365 0.86100363 60.06535613 2.51378625 62.63671875 5.64697266 C64.15776062 8.09451294 64.15776062 8.09451294 65.43237305 10.68652344 C65.92025803 11.66589874 66.40814301 12.64527405 66.91081238 13.65432739 C67.42235367 14.70635345 67.93389496 15.75837952 68.4609375 16.84228516 C69.00724319 17.94434296 69.55354889 19.04640076 70.1164093 20.18185425 C71.86187189 23.70728242 73.59356754 27.23925342 75.32421875 30.77197266 C77.59511669 35.38064476 79.87167321 39.98650906 82.1484375 44.59228516 C82.69821259 45.70815002 83.24798767 46.82401489 83.81442261 47.97369385 C87.65847697 55.75192274 91.62681514 63.45413715 95.75871277 71.08352661 C98.63671875 76.4412233 98.63671875 76.4412233 98.63671875 78.64697266 C99.18175552 78.46872955 99.7267923 78.29048645 100.28834534 78.10684204 C102.94740793 77.23731273 105.60651629 76.36792343 108.265625 75.49853516 C109.77274803 75.00568779 109.77274803 75.00568779 111.31031799 74.50288391 C116.85473718 72.69028277 122.3999954 70.88031002 127.94677734 69.07495117 C141.62733706 64.62662254 141.62733706 64.62662254 155.27763367 60.08660889 C158.12601985 59.12780651 160.97766354 58.17895265 163.82980347 57.23138428 C165.71761082 56.59924242 167.60022339 55.95165359 169.48266602 55.30371094 C180.54723994 51.64111924 180.54723994 51.64111924 185.63671875 53.64697266 C189.27482943 56.32934829 192.43312466 59.47301009 195.63671875 62.64697266 C196.85451804 63.83056387 198.07315779 65.01329073 199.29248047 66.1953125 C202.70886291 69.52047995 206.09513702 72.87465584 209.47094727 76.2409668 C211.58752899 78.3477211 213.71455546 80.44356719 215.84179688 82.53955078 C217.19987371 83.89110652 218.55731868 85.24329754 219.9140625 86.59619141 C220.54529526 87.21507736 221.17652802 87.83396332 221.82688904 88.47160339 C225.24474976 91.90690442 228.07775955 94.95887145 229.63671875 99.64697266 C229.20639831 105.12539599 228.09818289 109.87342233 226.3359375 115.10107422 C225.98699936 116.1465744 225.98699936 116.1465744 225.63101196 117.2131958 C224.86910233 119.49042244 224.09671006 121.76394126 223.32421875 124.03759766 C222.78925575 125.63060348 222.2550061 127.22384902 221.72143555 128.81732178 C220.32111454 132.99363731 218.91206707 137.16695378 217.50085449 141.33959961 C215.51037055 147.23035235 213.53187028 153.12514316 211.55200195 159.01947021 C210.49892755 162.15451012 209.44256786 165.28841256 208.38354492 168.42144775 C207.90151882 169.85111116 207.41950328 171.28077812 206.9375 172.71044922 C206.51637939 173.9565094 206.09525879 175.20256958 205.66137695 176.48638916 C204.88888075 178.86917275 204.19150051 181.20720675 203.63671875 183.64697266 C204.44850586 183.88762451 205.26029297 184.12827637 206.09667969 184.3762207 C210.36441602 185.90819088 214.2608106 187.88825569 218.27734375 189.97900391 C219.10943359 190.40747116 219.94152344 190.83593842 220.79882812 191.27738953 C223.49685333 192.66746217 226.19185735 194.0632778 228.88671875 195.45947266 C232.59389758 197.37447593 236.30248864 199.28672718 240.01171875 201.19775391 C241.38327118 201.9049205 241.38327118 201.9049205 242.78253174 202.62637329 C248.14708209 205.38624365 253.53012412 208.10133158 258.94921875 210.75244141 C259.55763611 211.05108597 260.16605347 211.34973053 260.79290771 211.65742493 C263.53339227 213.00120999 266.27829534 214.3340991 269.03222656 215.65014648 C270.45293457 216.34466919 270.45293457 216.34466919 271.90234375 217.05322266 C272.70446289 217.43800781 273.50658203 217.82279297 274.33300781 218.21923828 C277.30466854 220.0609373 279.36199118 221.98115544 281.63671875 224.64697266 C282.27163696 227.64428711 282.27163696 227.64428711 282.28369141 231.01025391 C282.30733261 232.90747192 282.30733261 232.90747192 282.33145142 234.84301758 C282.32250131 236.21517817 282.31224624 237.58733078 282.30078125 238.95947266 C282.30415217 240.37524837 282.30900709 241.79102126 282.3152771 243.20678711 C282.3226357 246.1692265 282.31197733 249.1309104 282.28857422 252.09326172 C282.26008498 255.88334792 282.27649469 259.67166388 282.30643654 263.46168518 C282.32453816 266.38380174 282.31873883 269.30550123 282.30579758 272.22763062 C282.30247137 273.62462577 282.30652307 275.02165927 282.31819534 276.41860962 C282.33094723 278.37362912 282.3080515 280.32878208 282.28369141 282.28369141 C282.27971344 283.39446045 282.27573547 284.50522949 282.27163696 285.6496582 C281.42268778 289.65736756 279.76990516 291.07561003 276.63671875 293.64697266 C274.18917847 295.16801453 274.18917847 295.16801453 271.59716797 296.44262695 C270.61779266 296.93051193 269.63841736 297.41839691 268.62936401 297.92106628 C267.57733795 298.43260757 266.52531189 298.94414886 265.44140625 299.47119141 C264.33934845 300.0174971 263.23729065 300.5638028 262.10183716 301.12666321 C258.57640899 302.8721258 255.04443798 304.60382144 251.51171875 306.33447266 C246.90304665 308.6053706 242.29718235 310.88192712 237.69140625 313.15869141 C236.57554138 313.70846649 235.45967651 314.25824158 234.30999756 314.82467651 C226.53176866 318.66873088 218.82955425 322.63706905 211.20016479 326.76896667 C205.8424681 329.64697266 205.8424681 329.64697266 203.63671875 329.64697266 C203.94770004 330.58134155 204.25868134 331.51571045 204.5790863 332.47839355 C207.51506226 341.30302242 210.44317389 350.13022679 213.36369228 358.95998383 C214.86525121 363.49888695 216.36952386 368.03685197 217.88012695 372.57275391 C219.33902493 376.95373979 220.7906258 381.33708245 222.23729134 385.72212219 C222.7892782 387.39102863 223.34384735 389.05908337 223.90109062 390.72624207 C224.68376219 393.06933093 225.45702755 395.41533597 226.22827148 397.76220703 C226.45844467 398.44410095 226.68861786 399.12599487 226.92576599 399.82855225 C228.82495074 405.66323371 230.61613155 411.26626168 228.21411133 417.10498047 C225.1911396 421.67197999 221.26286737 425.46921392 217.3984375 429.31884766 C216.59944534 430.12308167 215.80045319 430.92731567 214.97724915 431.75592041 C213.29240015 433.44716927 211.603695 435.13458432 209.91137695 436.81835938 C207.33078195 439.39043114 204.76941572 441.98062737 202.20898438 444.57275391 C200.56493372 446.21841646 198.91978753 447.86298544 197.2734375 449.50634766 C196.51278488 450.27823425 195.75213226 451.05012085 194.96842957 451.84539795 C190.78001946 455.97978669 187.42875172 459.24757647 181.63671875 460.64697266 C173.04071076 460.22490845 164.55931976 456.45366098 156.46875 453.70947266 C155.02026797 453.22330308 153.57158963 452.73771802 152.12272644 452.25268555 C148.33437641 450.98297332 144.54840297 449.7063254 140.76300049 448.42785645 C134.69623657 446.38036963 128.62565133 444.344231 122.55548668 442.30685425 C120.44836279 441.59862722 118.34212131 440.88782891 116.23603821 440.17651367 C114.93446973 439.73824764 113.6328905 439.30001355 112.33129883 438.86181641 C111.20452225 438.4814624 110.07774567 438.1011084 108.91682434 437.70922852 C105.50791951 436.60526127 102.08721365 435.6116863 98.63671875 434.64697266 C98.39606689 435.45875977 98.15541504 436.27054687 97.9074707 437.10693359 C96.37550052 441.37466992 94.39543572 445.27106451 92.3046875 449.28759766 C91.87622025 450.1196875 91.44775299 450.95177734 91.00630188 451.80908203 C89.61622924 454.50710724 88.22041361 457.20211126 86.82421875 459.89697266 C84.90921547 463.60415149 82.99696422 467.31274255 81.0859375 471.02197266 C80.6144931 471.93634094 80.14304871 472.85070923 79.65731812 473.79278564 C76.89744776 479.15733599 74.18235982 484.54037803 71.53125 489.95947266 C71.23260544 490.56789001 70.93396088 491.17630737 70.62626648 491.80316162 C69.28248141 494.54364618 67.94959231 497.28854925 66.63354492 500.04248047 C65.93902222 501.46318848 65.93902222 501.46318848 65.23046875 502.91259766 C64.84568359 503.7147168 64.46089844 504.51683594 64.06445312 505.34326172 C62.22275411 508.31492244 60.30253597 510.37224509 57.63671875 512.64697266 C54.6394043 513.28189087 54.6394043 513.28189087 51.2734375 513.29394531 C49.37621948 513.31758652 49.37621948 513.31758652 47.44067383 513.34170532 C46.06851324 513.33275522 44.69636063 513.32250014 43.32421875 513.31103516 C41.90844303 513.31440608 40.49267014 513.319261 39.0769043 513.32553101 C36.1144649 513.3328896 33.15278101 513.32223123 30.19042969 513.29882812 C26.40034349 513.27033889 22.61202752 513.28674859 18.82200623 513.31669044 C15.89988967 513.33479207 12.97819018 513.32899273 10.05606079 513.31605148 C8.65906564 513.31272528 7.26203214 513.31677697 5.86508179 513.32844925 C3.91006228 513.34120113 1.95490932 513.31830541 0 513.29394531 C-1.11076904 513.28996735 -2.22153809 513.28598938 -3.3659668 513.28189087 C-7.38408976 512.43073578 -8.78912431 510.79538426 -11.36328125 507.64697266 C-12.97370911 505.0206604 -12.97370911 505.0206604 -14.37426758 502.17675781 C-14.90864944 501.10438873 -15.44303131 500.03201965 -15.99360657 498.92715454 C-16.55516953 497.77508514 -17.11673248 496.62301575 -17.6953125 495.43603516 C-18.29582267 494.22311337 -18.89729706 493.01066854 -19.49967957 491.79867554 C-21.08190154 488.60955829 -22.65239926 485.41481491 -24.22003174 482.21850586 C-26.70979742 477.14770906 -29.21833758 472.08614369 -31.72417831 467.02327728 C-32.6259716 465.19986734 -33.52583283 463.3755128 -34.42556763 461.55108643 C-38.16762332 453.9839515 -42.02550372 446.50374479 -46.11206055 439.1171875 C-47.36328125 436.64697266 -47.36328125 436.64697266 -47.36328125 434.64697266 C-48.25562469 434.94320526 -49.14796814 435.23943787 -50.06735229 435.54464722 C-58.50927004 438.34626424 -66.95323865 441.14162035 -75.39921379 443.93098259 C-79.74048573 445.36494752 -84.08102562 446.80104861 -88.41992188 448.2421875 C-92.6133252 449.6349118 -96.80861193 451.02182076 -101.00522232 452.40485001 C-102.59972555 452.93143512 -104.19355909 453.46005287 -105.78667831 453.99081039 C-127.68947747 461.28396709 -127.68947747 461.28396709 -133.93261719 459.79663086 C-138.74566983 457.22397682 -142.46125908 453.09931856 -146.25390625 449.25244141 C-147.49355133 448.01497917 -147.49355133 448.01497917 -148.75823975 446.7525177 C-150.49763771 445.01146452 -152.2321078 443.26547584 -153.96191406 441.51489258 C-156.60607371 438.84175917 -159.2684116 436.18780062 -161.93359375 433.53564453 C-163.62481345 431.83818753 -165.3149548 430.13965531 -167.00390625 428.43994141 C-167.79766663 427.64911667 -168.591427 426.85829193 -169.40924072 426.04350281 C-176.87334365 418.45110711 -176.87334365 418.45110711 -178.36328125 413.64697266 C-178.19633349 406.92944003 -175.99393407 400.90229707 -173.828125 394.58837891 C-173.47118057 393.52699203 -173.11423615 392.46560516 -172.74647522 391.37205505 C-171.60501116 387.98208122 -170.45338155 384.59567446 -169.30078125 381.20947266 C-167.80686963 376.79512743 -166.31712813 372.37938191 -164.828125 367.96337891 C-164.2770961 366.33258896 -164.2770961 366.33258896 -163.7149353 364.66885376 C-159.79687427 353.0379051 -156.06439909 341.34848278 -152.36328125 329.64697266 C-153.64380371 329.25457397 -153.64380371 329.25457397 -154.95019531 328.85424805 C-158.48695951 327.60322523 -161.64922723 326.0689718 -164.97265625 324.33056641 C-165.60494141 324.0020015 -166.23722656 323.67343658 -166.88867188 323.33491516 C-168.96553501 322.25521526 -171.03940448 321.16989606 -173.11328125 320.08447266 C-176.06985563 318.54331338 -179.02843755 317.00606193 -181.98828125 315.47119141 C-182.75017761 315.07598297 -183.51207397 314.68077454 -184.29705811 314.27359009 C-189.80948541 311.42461197 -195.35661829 308.65270546 -200.92578125 305.91650391 C-201.69988342 305.53501694 -202.4739856 305.15352997 -203.27154541 304.76048279 C-206.29012817 303.27345182 -209.30855085 301.78656173 -212.33728027 300.32028198 C-214.42847995 299.30771564 -216.51339471 298.28310142 -218.59765625 297.25634766 C-219.21084717 296.96423904 -219.82403809 296.67213043 -220.45581055 296.37117004 C-224.53437518 294.34456717 -227.43070198 292.12902613 -230.36328125 288.64697266 C-230.99819946 285.6496582 -230.99819946 285.6496582 -231.01025391 282.28369141 C-231.02601471 281.01887939 -231.04177551 279.75406738 -231.05801392 278.45092773 C-231.04906381 277.07876715 -231.03880874 275.70661454 -231.02734375 274.33447266 C-231.03071467 272.91869694 -231.03556959 271.50292405 -231.0418396 270.0871582 C-231.0491982 267.12471881 -231.03853983 264.16303492 -231.01513672 261.20068359 C-230.98664748 257.41059739 -231.00305719 253.62228143 -231.03299904 249.83226013 C-231.05110066 246.91014357 -231.04530133 243.98844409 -231.03236008 241.0663147 C-231.02903387 239.66931954 -231.03308557 238.27228604 -231.04475784 236.87533569 C-231.05750973 234.92031619 -231.034614 232.96516323 -231.01025391 231.01025391 C-231.00627594 229.89948486 -231.00229797 228.78871582 -230.99819946 227.64428711 C-230.14591726 223.6208433 -228.51941619 222.22265168 -225.36328125 219.64697266 C-222.64758301 217.99185181 -222.64758301 217.99185181 -219.67773438 216.52832031 C-218.55886841 215.97069 -217.44000244 215.41305969 -216.28723145 214.83853149 C-215.07306607 214.24589333 -213.85883084 213.65339827 -212.64453125 213.06103516 C-211.38197848 212.43570723 -210.11990156 211.80941771 -208.85827637 211.18222046 C-205.54016472 209.53550162 -202.21641582 207.9005109 -198.89111328 206.26837158 C-194.24049713 203.98323708 -189.5975323 201.68259171 -184.95397949 199.38314819 C-182.48838628 198.16221696 -180.02064549 196.94582138 -177.55090332 195.73330688 C-170.57513776 192.29485451 -163.71605874 188.7110934 -156.91784668 184.93734741 C-154.36328125 183.64697266 -154.36328125 183.64697266 -152.36328125 183.64697266 C-152.72454102 182.53813721 -153.08580078 181.42930176 -153.45800781 180.28686523 C-153.69997391 179.54408829 -153.94194 178.80131134 -154.1912384 178.036026 C-154.74345968 176.34095687 -155.29578055 174.64592019 -155.84819031 172.95091248 C-157.40516194 168.1725185 -158.9596845 163.39334776 -160.51000977 158.61279297 C-163.34748078 149.8690607 -166.18968686 141.12801529 -169.12063599 132.41508484 C-170.25458354 129.04202867 -171.37804234 125.66552347 -172.50061035 122.28866577 C-173.03114771 120.70290134 -173.56698363 119.11889912 -174.10827637 117.53677368 C-174.86175818 115.33298871 -175.59673725 113.12379562 -176.328125 110.91259766 C-176.74698975 109.6728418 -177.16585449 108.43308594 -177.59741211 107.15576172 C-178.46287322 103.19069732 -178.36859632 100.5716512 -177.36328125 96.64697266 C-175.84619141 94.33618164 -175.84619141 94.33618164 -173.77734375 92.20556641 C-172.96297852 91.35462402 -172.14861328 90.50368164 -171.30957031 89.62695312 C-170.84538696 89.15747253 -170.38120361 88.68799194 -169.9029541 88.20428467 C-168.19816951 86.47996932 -166.51451984 84.73634045 -164.83105469 82.99121094 C-161.52078872 79.57289679 -158.17921323 76.18712479 -154.82421875 72.81274414 C-153.42554514 71.40244766 -152.03137687 69.98766962 -150.64160156 68.56860352 C-148.60804939 66.49238774 -146.56156879 64.42974061 -144.51171875 62.36962891 C-143.89799408 61.73839615 -143.28426941 61.10716339 -142.65194702 60.45680237 C-138.88433706 56.70784077 -135.63223067 54.0147452 -130.36328125 52.64697266 C-123.03608791 53.11105161 -115.89857347 55.96178396 -109.00390625 58.31494141 C-107.93823425 58.67284256 -106.87256226 59.03074371 -105.77459717 59.39949036 C-102.38553403 60.53876855 -98.99930245 61.68618876 -95.61328125 62.83447266 C-91.18189457 64.33065503 -86.74935595 65.82339704 -82.31640625 67.31494141 C-81.23717896 67.67860809 -80.15795166 68.04227478 -79.04602051 68.41696167 C-68.5245117 71.95152177 -57.95376137 75.32552663 -47.36328125 78.64697266 C-47.10691895 77.80376465 -46.85055664 76.96055664 -46.58642578 76.09179688 C-45.27396992 72.39543916 -43.61235476 68.99256487 -41.79296875 65.52978516 C-41.43942825 64.84754883 -41.08588776 64.1653125 -40.72163391 63.46240234 C-39.56434992 61.23024483 -38.40140883 59.00108997 -37.23828125 56.77197266 C-35.60371771 53.62771699 -33.97270397 50.4816379 -32.34375 47.33447266 C-31.92948257 46.53445831 -31.51521515 45.73444397 -31.08839417 44.91018677 C-28.26203553 39.43452716 -25.50431111 33.92848537 -22.7890625 28.39697266 C-22.42828613 27.66429169 -22.06750977 26.93161072 -21.69580078 26.17672729 C-20.30742286 23.35575484 -18.91923879 20.53493755 -17.55194092 17.70367432 C-16.61624473 15.76632332 -15.66856756 13.83524243 -14.71875 11.90478516 C-14.18918701 10.81311035 -13.65962402 9.72143555 -13.11401367 8.59667969 C-9.67103493 2.79580546 -6.88533989 0.02465828 0 0 Z "
        fill="#4A6880" transform="translate(230.36328125,-0.64697265625)" />
    <path
        d="M0 0 C1.26481201 -0.0157608 2.52962402 -0.03152161 3.83276367 -0.04776001 C5.20492426 -0.0388099 6.57707687 -0.02855483 7.94921875 -0.01708984 C9.36499447 -0.02046076 10.78076736 -0.02531568 12.1965332 -0.03158569 C15.1589726 -0.03894429 18.12065649 -0.02828592 21.08300781 -0.00488281 C24.87309401 0.02360643 28.66140998 0.00719672 32.45143127 -0.02274513 C35.37354783 -0.04084675 38.29524732 -0.03504742 41.21737671 -0.02210617 C42.61437186 -0.01877997 44.01140536 -0.02283166 45.40835571 -0.03450394 C47.36337522 -0.04725582 49.31852818 -0.0243601 51.2734375 0 C52.93959106 0.00596695 52.93959106 0.00596695 54.6394043 0.01205444 C58.64711365 0.86100363 60.06535613 2.51378625 62.63671875 5.64697266 C64.15776062 8.09451294 64.15776062 8.09451294 65.43237305 10.68652344 C65.92025803 11.66589874 66.40814301 12.64527405 66.91081238 13.65432739 C67.42235367 14.70635345 67.93389496 15.75837952 68.4609375 16.84228516 C69.00724319 17.94434296 69.55354889 19.04640076 70.1164093 20.18185425 C71.86187189 23.70728242 73.59356754 27.23925342 75.32421875 30.77197266 C77.59511669 35.38064476 79.87167321 39.98650906 82.1484375 44.59228516 C82.69821259 45.70815002 83.24798767 46.82401489 83.81442261 47.97369385 C87.65847697 55.75192274 91.62681514 63.45413715 95.75871277 71.08352661 C98.63671875 76.4412233 98.63671875 76.4412233 98.63671875 78.64697266 C99.18175552 78.46872955 99.7267923 78.29048645 100.28834534 78.10684204 C102.94740793 77.23731273 105.60651629 76.36792343 108.265625 75.49853516 C109.77274803 75.00568779 109.77274803 75.00568779 111.31031799 74.50288391 C116.85473718 72.69028277 122.3999954 70.88031002 127.94677734 69.07495117 C141.62733706 64.62662254 141.62733706 64.62662254 155.27763367 60.08660889 C158.12601985 59.12780651 160.97766354 58.17895265 163.82980347 57.23138428 C165.71761082 56.59924242 167.60022339 55.95165359 169.48266602 55.30371094 C180.54723994 51.64111924 180.54723994 51.64111924 185.63671875 53.64697266 C189.27482943 56.32934829 192.43312466 59.47301009 195.63671875 62.64697266 C196.85451804 63.83056387 198.07315779 65.01329073 199.29248047 66.1953125 C202.70886291 69.52047995 206.09513702 72.87465584 209.47094727 76.2409668 C211.58752899 78.3477211 213.71455546 80.44356719 215.84179688 82.53955078 C217.19987371 83.89110652 218.55731868 85.24329754 219.9140625 86.59619141 C220.54529526 87.21507736 221.17652802 87.83396332 221.82688904 88.47160339 C225.24474976 91.90690442 228.07775955 94.95887145 229.63671875 99.64697266 C229.20639831 105.12539599 228.09818289 109.87342233 226.3359375 115.10107422 C225.98699936 116.1465744 225.98699936 116.1465744 225.63101196 117.2131958 C224.86910233 119.49042244 224.09671006 121.76394126 223.32421875 124.03759766 C222.78925575 125.63060348 222.2550061 127.22384902 221.72143555 128.81732178 C220.32111454 132.99363731 218.91206707 137.16695378 217.50085449 141.33959961 C215.51037055 147.23035235 213.53187028 153.12514316 211.55200195 159.01947021 C210.49892755 162.15451012 209.44256786 165.28841256 208.38354492 168.42144775 C207.90151882 169.85111116 207.41950328 171.28077812 206.9375 172.71044922 C206.51637939 173.9565094 206.09525879 175.20256958 205.66137695 176.48638916 C204.88888075 178.86917275 204.19150051 181.20720675 203.63671875 183.64697266 C204.44850586 183.88762451 205.26029297 184.12827637 206.09667969 184.3762207 C210.36441602 185.90819088 214.2608106 187.88825569 218.27734375 189.97900391 C219.10943359 190.40747116 219.94152344 190.83593842 220.79882812 191.27738953 C223.49685333 192.66746217 226.19185735 194.0632778 228.88671875 195.45947266 C232.59389758 197.37447593 236.30248864 199.28672718 240.01171875 201.19775391 C241.38327118 201.9049205 241.38327118 201.9049205 242.78253174 202.62637329 C248.14708209 205.38624365 253.53012412 208.10133158 258.94921875 210.75244141 C259.55763611 211.05108597 260.16605347 211.34973053 260.79290771 211.65742493 C263.53339227 213.00120999 266.27829534 214.3340991 269.03222656 215.65014648 C270.45293457 216.34466919 270.45293457 216.34466919 271.90234375 217.05322266 C272.70446289 217.43800781 273.50658203 217.82279297 274.33300781 218.21923828 C277.30466854 220.0609373 279.36199118 221.98115544 281.63671875 224.64697266 C282.27163696 227.64428711 282.27163696 227.64428711 282.28369141 231.01025391 C282.30733261 232.90747192 282.30733261 232.90747192 282.33145142 234.84301758 C282.32250131 236.21517817 282.31224624 237.58733078 282.30078125 238.95947266 C282.30415217 240.37524837 282.30900709 241.79102126 282.3152771 243.20678711 C282.3226357 246.1692265 282.31197733 249.1309104 282.28857422 252.09326172 C282.26008498 255.88334792 282.27649469 259.67166388 282.30643654 263.46168518 C282.32453816 266.38380174 282.31873883 269.30550123 282.30579758 272.22763062 C282.30247137 273.62462577 282.30652307 275.02165927 282.31819534 276.41860962 C282.33094723 278.37362912 282.3080515 280.32878208 282.28369141 282.28369141 C282.27971344 283.39446045 282.27573547 284.50522949 282.27163696 285.6496582 C281.42268778 289.65736756 279.76990516 291.07561003 276.63671875 293.64697266 C274.18917847 295.16801453 274.18917847 295.16801453 271.59716797 296.44262695 C270.61779266 296.93051193 269.63841736 297.41839691 268.62936401 297.92106628 C267.57733795 298.43260757 266.52531189 298.94414886 265.44140625 299.47119141 C264.33934845 300.0174971 263.23729065 300.5638028 262.10183716 301.12666321 C258.57640899 302.8721258 255.04443798 304.60382144 251.51171875 306.33447266 C246.90304665 308.6053706 242.29718235 310.88192712 237.69140625 313.15869141 C236.57554138 313.70846649 235.45967651 314.25824158 234.30999756 314.82467651 C226.53176866 318.66873088 218.82955425 322.63706905 211.20016479 326.76896667 C205.8424681 329.64697266 205.8424681 329.64697266 203.63671875 329.64697266 C203.94770004 330.58134155 204.25868134 331.51571045 204.5790863 332.47839355 C207.51506226 341.30302242 210.44317389 350.13022679 213.36369228 358.95998383 C214.86525121 363.49888695 216.36952386 368.03685197 217.88012695 372.57275391 C219.33902493 376.95373979 220.7906258 381.33708245 222.23729134 385.72212219 C222.7892782 387.39102863 223.34384735 389.05908337 223.90109062 390.72624207 C224.68376219 393.06933093 225.45702755 395.41533597 226.22827148 397.76220703 C226.45844467 398.44410095 226.68861786 399.12599487 226.92576599 399.82855225 C228.82495074 405.66323371 230.61613155 411.26626168 228.21411133 417.10498047 C225.1911396 421.67197999 221.26286737 425.46921392 217.3984375 429.31884766 C216.59944534 430.12308167 215.80045319 430.92731567 214.97724915 431.75592041 C213.29240015 433.44716927 211.603695 435.13458432 209.91137695 436.81835938 C207.33078195 439.39043114 204.76941572 441.98062737 202.20898438 444.57275391 C200.56493372 446.21841646 198.91978753 447.86298544 197.2734375 449.50634766 C196.51278488 450.27823425 195.75213226 451.05012085 194.96842957 451.84539795 C190.78001946 455.97978669 187.42875172 459.24757647 181.63671875 460.64697266 C173.04071076 460.22490845 164.55931976 456.45366098 156.46875 453.70947266 C155.02026797 453.22330308 153.57158963 452.73771802 152.12272644 452.25268555 C148.33437641 450.98297332 144.54840297 449.7063254 140.76300049 448.42785645 C134.69623657 446.38036963 128.62565133 444.344231 122.55548668 442.30685425 C120.44836279 441.59862722 118.34212131 440.88782891 116.23603821 440.17651367 C114.93446973 439.73824764 113.6328905 439.30001355 112.33129883 438.86181641 C111.20452225 438.4814624 110.07774567 438.1011084 108.91682434 437.70922852 C105.50791951 436.60526127 102.08721365 435.6116863 98.63671875 434.64697266 C98.39606689 435.45875977 98.15541504 436.27054687 97.9074707 437.10693359 C96.37550052 441.37466992 94.39543572 445.27106451 92.3046875 449.28759766 C91.87622025 450.1196875 91.44775299 450.95177734 91.00630188 451.80908203 C89.61622924 454.50710724 88.22041361 457.20211126 86.82421875 459.89697266 C84.90921547 463.60415149 82.99696422 467.31274255 81.0859375 471.02197266 C80.6144931 471.93634094 80.14304871 472.85070923 79.65731812 473.79278564 C76.89744776 479.15733599 74.18235982 484.54037803 71.53125 489.95947266 C71.23260544 490.56789001 70.93396088 491.17630737 70.62626648 491.80316162 C69.28248141 494.54364618 67.94959231 497.28854925 66.63354492 500.04248047 C65.93902222 501.46318848 65.93902222 501.46318848 65.23046875 502.91259766 C64.84568359 503.7147168 64.46089844 504.51683594 64.06445312 505.34326172 C62.22275411 508.31492244 60.30253597 510.37224509 57.63671875 512.64697266 C54.6394043 513.28189087 54.6394043 513.28189087 51.2734375 513.29394531 C49.37621948 513.31758652 49.37621948 513.31758652 47.44067383 513.34170532 C46.06851324 513.33275522 44.69636063 513.32250014 43.32421875 513.31103516 C41.90844303 513.31440608 40.49267014 513.319261 39.0769043 513.32553101 C36.1144649 513.3328896 33.15278101 513.32223123 30.19042969 513.29882812 C26.40034349 513.27033889 22.61202752 513.28674859 18.82200623 513.31669044 C15.89988967 513.33479207 12.97819018 513.32899273 10.05606079 513.31605148 C8.65906564 513.31272528 7.26203214 513.31677697 5.86508179 513.32844925 C3.91006228 513.34120113 1.95490932 513.31830541 0 513.29394531 C-1.11076904 513.28996735 -2.22153809 513.28598938 -3.3659668 513.28189087 C-7.38408976 512.43073578 -8.78912431 510.79538426 -11.36328125 507.64697266 C-12.97370911 505.0206604 -12.97370911 505.0206604 -14.37426758 502.17675781 C-14.90864944 501.10438873 -15.44303131 500.03201965 -15.99360657 498.92715454 C-16.55516953 497.77508514 -17.11673248 496.62301575 -17.6953125 495.43603516 C-18.29582267 494.22311337 -18.89729706 493.01066854 -19.49967957 491.79867554 C-21.08190154 488.60955829 -22.65239926 485.41481491 -24.22003174 482.21850586 C-26.70979742 477.14770906 -29.21833758 472.08614369 -31.72417831 467.02327728 C-32.6259716 465.19986734 -33.52583283 463.3755128 -34.42556763 461.55108643 C-38.16762332 453.9839515 -42.02550372 446.50374479 -46.11206055 439.1171875 C-47.36328125 436.64697266 -47.36328125 436.64697266 -47.36328125 434.64697266 C-48.25562469 434.94320526 -49.14796814 435.23943787 -50.06735229 435.54464722 C-58.50927004 438.34626424 -66.95323865 441.14162035 -75.39921379 443.93098259 C-79.74048573 445.36494752 -84.08102562 446.80104861 -88.41992188 448.2421875 C-92.6133252 449.6349118 -96.80861193 451.02182076 -101.00522232 452.40485001 C-102.59972555 452.93143512 -104.19355909 453.46005287 -105.78667831 453.99081039 C-127.68947747 461.28396709 -127.68947747 461.28396709 -133.93261719 459.79663086 C-138.74566983 457.22397682 -142.46125908 453.09931856 -146.25390625 449.25244141 C-147.49355133 448.01497917 -147.49355133 448.01497917 -148.75823975 446.7525177 C-150.49763771 445.01146452 -152.2321078 443.26547584 -153.96191406 441.51489258 C-156.60607371 438.84175917 -159.2684116 436.18780062 -161.93359375 433.53564453 C-163.62481345 431.83818753 -165.3149548 430.13965531 -167.00390625 428.43994141 C-167.79766663 427.64911667 -168.591427 426.85829193 -169.40924072 426.04350281 C-176.87334365 418.45110711 -176.87334365 418.45110711 -178.36328125 413.64697266 C-178.19633349 406.92944003 -175.99393407 400.90229707 -173.828125 394.58837891 C-173.47118057 393.52699203 -173.11423615 392.46560516 -172.74647522 391.37205505 C-171.60501116 387.98208122 -170.45338155 384.59567446 -169.30078125 381.20947266 C-167.80686963 376.79512743 -166.31712813 372.37938191 -164.828125 367.96337891 C-164.2770961 366.33258896 -164.2770961 366.33258896 -163.7149353 364.66885376 C-159.79687427 353.0379051 -156.06439909 341.34848278 -152.36328125 329.64697266 C-153.64380371 329.25457397 -153.64380371 329.25457397 -154.95019531 328.85424805 C-158.48695951 327.60322523 -161.64922723 326.0689718 -164.97265625 324.33056641 C-165.60494141 324.0020015 -166.23722656 323.67343658 -166.88867188 323.33491516 C-168.96553501 322.25521526 -171.03940448 321.16989606 -173.11328125 320.08447266 C-176.06985563 318.54331338 -179.02843755 317.00606193 -181.98828125 315.47119141 C-182.75017761 315.07598297 -183.51207397 314.68077454 -184.29705811 314.27359009 C-189.80948541 311.42461197 -195.35661829 308.65270546 -200.92578125 305.91650391 C-201.69988342 305.53501694 -202.4739856 305.15352997 -203.27154541 304.76048279 C-206.29012817 303.27345182 -209.30855085 301.78656173 -212.33728027 300.32028198 C-214.42847995 299.30771564 -216.51339471 298.28310142 -218.59765625 297.25634766 C-219.21084717 296.96423904 -219.82403809 296.67213043 -220.45581055 296.37117004 C-224.53437518 294.34456717 -227.43070198 292.12902613 -230.36328125 288.64697266 C-230.99819946 285.6496582 -230.99819946 285.6496582 -231.01025391 282.28369141 C-231.02601471 281.01887939 -231.04177551 279.75406738 -231.05801392 278.45092773 C-231.04906381 277.07876715 -231.03880874 275.70661454 -231.02734375 274.33447266 C-231.03071467 272.91869694 -231.03556959 271.50292405 -231.0418396 270.0871582 C-231.0491982 267.12471881 -231.03853983 264.16303492 -231.01513672 261.20068359 C-230.98664748 257.41059739 -231.00305719 253.62228143 -231.03299904 249.83226013 C-231.05110066 246.91014357 -231.04530133 243.98844409 -231.03236008 241.0663147 C-231.02903387 239.66931954 -231.03308557 238.27228604 -231.04475784 236.87533569 C-231.05750973 234.92031619 -231.034614 232.96516323 -231.01025391 231.01025391 C-231.00627594 229.89948486 -231.00229797 228.78871582 -230.99819946 227.64428711 C-230.14591726 223.6208433 -228.51941619 222.22265168 -225.36328125 219.64697266 C-222.64758301 217.99185181 -222.64758301 217.99185181 -219.67773438 216.52832031 C-218.55886841 215.97069 -217.44000244 215.41305969 -216.28723145 214.83853149 C-215.07306607 214.24589333 -213.85883084 213.65339827 -212.64453125 213.06103516 C-211.38197848 212.43570723 -210.11990156 211.80941771 -208.85827637 211.18222046 C-205.54016472 209.53550162 -202.21641582 207.9005109 -198.89111328 206.26837158 C-194.24049713 203.98323708 -189.5975323 201.68259171 -184.95397949 199.38314819 C-182.48838628 198.16221696 -180.02064549 196.94582138 -177.55090332 195.73330688 C-170.57513776 192.29485451 -163.71605874 188.7110934 -156.91784668 184.93734741 C-154.36328125 183.64697266 -154.36328125 183.64697266 -152.36328125 183.64697266 C-152.72454102 182.53813721 -153.08580078 181.42930176 -153.45800781 180.28686523 C-153.69997391 179.54408829 -153.94194 178.80131134 -154.1912384 178.036026 C-154.74345968 176.34095687 -155.29578055 174.64592019 -155.84819031 172.95091248 C-157.40516194 168.1725185 -158.9596845 163.39334776 -160.51000977 158.61279297 C-163.34748078 149.8690607 -166.18968686 141.12801529 -169.12063599 132.41508484 C-170.25458354 129.04202867 -171.37804234 125.66552347 -172.50061035 122.28866577 C-173.03114771 120.70290134 -173.56698363 119.11889912 -174.10827637 117.53677368 C-174.86175818 115.33298871 -175.59673725 113.12379562 -176.328125 110.91259766 C-176.74698975 109.6728418 -177.16585449 108.43308594 -177.59741211 107.15576172 C-178.46287322 103.19069732 -178.36859632 100.5716512 -177.36328125 96.64697266 C-175.84619141 94.33618164 -175.84619141 94.33618164 -173.77734375 92.20556641 C-172.96297852 91.35462402 -172.14861328 90.50368164 -171.30957031 89.62695312 C-170.84538696 89.15747253 -170.38120361 88.68799194 -169.9029541 88.20428467 C-168.19816951 86.47996932 -166.51451984 84.73634045 -164.83105469 82.99121094 C-161.52078872 79.57289679 -158.17921323 76.18712479 -154.82421875 72.81274414 C-153.42554514 71.40244766 -152.03137687 69.98766962 -150.64160156 68.56860352 C-148.60804939 66.49238774 -146.56156879 64.42974061 -144.51171875 62.36962891 C-143.89799408 61.73839615 -143.28426941 61.10716339 -142.65194702 60.45680237 C-138.88433706 56.70784077 -135.63223067 54.0147452 -130.36328125 52.64697266 C-123.03608791 53.11105161 -115.89857347 55.96178396 -109.00390625 58.31494141 C-107.93823425 58.67284256 -106.87256226 59.03074371 -105.77459717 59.39949036 C-102.38553403 60.53876855 -98.99930245 61.68618876 -95.61328125 62.83447266 C-91.18189457 64.33065503 -86.74935595 65.82339704 -82.31640625 67.31494141 C-81.23717896 67.67860809 -80.15795166 68.04227478 -79.04602051 68.41696167 C-68.5245117 71.95152177 -57.95376137 75.32552663 -47.36328125 78.64697266 C-47.10691895 77.80376465 -46.85055664 76.96055664 -46.58642578 76.09179688 C-45.27396992 72.39543916 -43.61235476 68.99256487 -41.79296875 65.52978516 C-41.43942825 64.84754883 -41.08588776 64.1653125 -40.72163391 63.46240234 C-39.56434992 61.23024483 -38.40140883 59.00108997 -37.23828125 56.77197266 C-35.60371771 53.62771699 -33.97270397 50.4816379 -32.34375 47.33447266 C-31.92948257 46.53445831 -31.51521515 45.73444397 -31.08839417 44.91018677 C-28.26203553 39.43452716 -25.50431111 33.92848537 -22.7890625 28.39697266 C-22.42828613 27.66429169 -22.06750977 26.93161072 -21.69580078 26.17672729 C-20.30742286 23.35575484 -18.91923879 20.53493755 -17.55194092 17.70367432 C-16.61624473 15.76632332 -15.66856756 13.83524243 -14.71875 11.90478516 C-14.18918701 10.81311035 -13.65962402 9.72143555 -13.11401367 8.59667969 C-9.67103493 2.79580546 -6.88533989 0.02465828 0 0 Z M4.63671875 20.64697266 C2.57550781 24.79259766 0.51429688 28.93822266 -1.609375 33.20947266 C-2.93509456 35.87115844 -4.26105884 38.53271683 -5.58789062 41.19384766 C-7.68326896 45.3964539 -9.77783975 49.5994461 -11.86694336 53.80517578 C-25.20114494 80.64351388 -25.20114494 80.64351388 -30.54296875 90.39697266 C-30.87320541 91.01612549 -31.20344208 91.63527832 -31.54368591 92.27319336 C-33.92941178 96.5124188 -36.50824329 98.80424821 -41.125 100.33447266 C-46.76100086 101.12134887 -51.08472288 100.31423771 -56.453125 98.47900391 C-57.13850845 98.24760712 -57.82389191 98.01621033 -58.53004456 97.77780151 C-60.01390139 97.27557241 -61.4963606 96.7691988 -62.97753906 96.25912476 C-65.3310927 95.44903956 -67.68834246 94.65068839 -70.046875 93.85522461 C-76.05987543 91.82444429 -82.06618241 89.77416688 -88.07159424 87.72106934 C-93.46637733 85.87691525 -98.8638091 84.04096711 -104.26516724 82.21615601 C-106.83588195 81.34377075 -109.40213973 80.45905588 -111.96850586 79.57397461 C-113.5478012 79.03908387 -115.12729937 78.50479149 -116.70703125 77.97119141 C-117.42524551 77.71973358 -118.14345978 77.46827576 -118.88343811 77.209198 C-122.47872968 76.0098699 -124.77953487 75.3509717 -128.36328125 76.64697266 C-130.57947123 78.52367837 -132.63586093 80.40376048 -134.6953125 82.43994141 C-135.2913176 83.02358963 -135.88732269 83.60723785 -136.50138855 84.20857239 C-137.75682441 85.44445982 -139.00814795 86.68453661 -140.25561523 87.9284668 C-142.1692474 89.82798699 -144.10788996 91.69924335 -146.04882812 93.57080078 C-147.26595597 94.77553337 -148.48150621 95.98186232 -149.6953125 97.18994141 C-150.57012016 98.02467232 -150.57012016 98.02467232 -151.46260071 98.87626648 C-153.29238223 100.65949068 -153.29238223 100.65949068 -155.36328125 103.64697266 C-155.00818776 108.26323925 -153.53384769 112.46215825 -152.04663086 116.82641602 C-151.81239914 117.51830521 -151.57816742 118.2101944 -151.33683777 118.92304993 C-150.83078035 120.41652585 -150.32271774 121.90932354 -149.81284904 123.40150261 C-149.00527559 125.76713301 -148.20450321 128.13496527 -147.40565491 130.5035553 C-145.13452534 137.23469878 -142.85420876 143.9626853 -140.56225586 150.68676758 C-139.15805078 154.80795166 -137.76420777 158.93252109 -136.37671089 163.0593586 C-135.84759328 164.62630443 -135.3145417 166.19192778 -134.77741814 167.75614738 C-134.02539456 169.94698661 -133.28662301 172.1418983 -132.55053711 174.33813477 C-132.12719589 175.58356552 -131.70385468 176.82899628 -131.26768494 178.11216736 C-129.79382886 183.87264172 -129.58739063 189.2702353 -132.58175659 194.4909668 C-134.91369761 197.31308799 -137.40980283 198.65429499 -140.60986328 200.42822266 C-141.2282715 200.77227646 -141.84667973 201.11633026 -142.48382759 201.47080994 C-149.32300292 205.24130911 -156.29756096 208.74047766 -163.29296875 212.20947266 C-164.66319158 212.89271185 -166.03323399 213.57631298 -167.40310669 214.26025391 C-170.95543801 216.03265752 -174.51014657 217.80023798 -178.06542969 219.56671143 C-182.35942244 221.70152541 -186.65033723 223.84251869 -190.94178772 225.98243713 C-197.41331464 229.20860481 -203.88862335 232.42705911 -210.36328125 235.64697266 C-210.36328125 249.50697266 -210.36328125 263.36697266 -210.36328125 277.64697266 C-205.39136719 280.11552734 -200.41945312 282.58408203 -195.296875 285.12744141 C-192.1383367 286.69904142 -188.97998494 288.27099598 -185.82226562 289.84423828 C-180.81609919 292.33837355 -175.80931548 294.83120805 -170.79858398 297.31616211 C-166.75644989 299.32086702 -162.71732148 301.33151221 -158.68016243 303.3462162 C-157.14353904 304.11176787 -155.60586532 304.87521524 -154.06710625 305.63646507 C-151.9031203 306.70748441 -149.74307516 307.78609589 -147.58374023 308.86645508 C-146.63966309 309.33040428 -146.63966309 309.33040428 -145.67651367 309.8037262 C-139.92473587 312.69942779 -134.62833891 315.40251553 -131.42578125 321.08447266 C-129.82411835 326.45475415 -130.09314106 330.61237059 -131.91015625 335.87353516 C-132.25473877 336.88794678 -132.59932129 337.9023584 -132.9543457 338.94750977 C-133.33679443 340.04458252 -133.71924316 341.14165527 -134.11328125 342.27197266 C-134.93540411 344.68195558 -135.756989 347.09212206 -136.578125 349.50244141 C-137.02847436 350.81543268 -137.4788327 352.12842087 -137.92919922 353.44140625 C-140.29295963 360.35226025 -142.5855521 367.28708444 -144.88903809 374.21820068 C-145.90445294 377.272244 -146.92200122 380.32557177 -147.94082642 383.378479 C-148.41754242 384.80937128 -148.89265821 386.24079781 -149.36605835 387.67279053 C-150.42277935 390.86423993 -151.50403164 394.0382684 -152.64208984 397.20214844 C-153.0180127 398.25772949 -153.39393555 399.31331055 -153.78125 400.40087891 C-154.11278076 401.30265869 -154.44431152 402.20443848 -154.78588867 403.13354492 C-155.49254365 406.20966034 -155.46498946 407.67300873 -154.36328125 410.64697266 C-152.5290463 412.95201652 -150.72275566 415.01391551 -148.67578125 417.11181641 C-148.09924805 417.70877823 -147.52271484 418.30574005 -146.92871094 418.92079163 C-145.70693723 420.17589859 -144.47940933 421.42542642 -143.24658203 422.66967773 C-141.37023365 424.57740399 -139.53759075 426.52131818 -137.703125 428.46923828 C-136.5090024 429.68588186 -135.31246281 430.90015887 -134.11328125 432.11181641 C-133.57227783 432.69704575 -133.03127441 433.28227509 -132.47387695 433.88523865 C-130.21419023 436.09406036 -128.61862704 437.62686939 -125.36709595 437.67893982 C-122.94041979 437.18730851 -120.69979753 436.46703023 -118.36328125 435.64697266 C-117.44875183 435.36159134 -116.53422241 435.07621002 -115.59197998 434.78218079 C-112.44655675 433.79148981 -109.32324246 432.74610688 -106.19921875 431.68994141 C-105.04894196 431.30510086 -103.89866516 430.92026031 -102.71353149 430.52375793 C-99.05367462 429.29824308 -95.39595288 428.06649235 -91.73828125 426.83447266 C-89.30482799 426.01829846 -86.87123543 425.20253946 -84.4375 424.38720703 C-82.662257 423.79203781 -82.662257 423.79203781 -80.85115051 423.18484497 C-78.51766299 422.40254348 -76.18407684 421.62053611 -73.85038757 420.83883667 C-69.05595189 419.2309782 -64.26384069 417.61907933 -59.48754883 415.95800781 C-58.79178741 415.7184285 -58.096026 415.47884918 -57.37918091 415.23200989 C-55.64300288 414.6328855 -53.90959493 414.02574889 -52.17651367 413.41772461 C-46.76062071 411.93391188 -42.74499209 412.83030254 -37.5793457 414.6015625 C-32.97259357 417.53144707 -31.32107156 421.27776365 -28.87890625 426.06103516 C-28.36982727 427.02627106 -27.86074829 427.99150696 -27.33624268 428.98599243 C-25.65522369 432.19481501 -24.0055735 435.41816901 -22.36328125 438.64697266 C-21.7906958 439.76922241 -21.21811035 440.89147217 -20.62817383 442.04772949 C-16.71514069 449.73967643 -12.85942449 457.45955101 -9.02313232 465.18994141 C-7.47684882 468.3034616 -5.92572301 471.41456813 -4.375 474.52587891 C-1.36605012 480.56375842 1.63516782 486.60538937 4.63671875 492.64697266 C18.49671875 492.64697266 32.35671875 492.64697266 46.63671875 492.64697266 C48.78171875 488.33376953 50.92671875 484.02056641 53.13671875 479.57666016 C54.51257063 476.81471507 55.88866532 474.0528962 57.265625 471.29150391 C59.44229382 466.92629629 61.61814037 462.56069461 63.78857422 458.19238281 C65.54210847 454.66328589 67.29975746 451.13626469 69.06005859 447.61053848 C69.72474545 446.27752202 70.38804524 444.94381282 71.04980469 443.60934067 C74.51252507 436.62897807 78.06522215 429.70477035 81.8515625 422.89355469 C82.47796631 421.76225128 83.10437012 420.63094788 83.74975586 419.46536255 C85.94603821 416.18496948 87.95936449 414.50683813 91.58203125 413.02978516 C97.09882631 412.00194121 101.47735832 413.02045643 106.7265625 414.81494141 C107.7545697 415.16203659 107.7545697 415.16203659 108.80334473 415.5161438 C110.28715307 416.01838104 111.76956652 416.52475447 113.2507019 417.03482056 C115.60502646 417.84507531 117.96311465 418.64336125 120.32250977 419.4387207 C127.24266929 421.7749591 134.15366623 424.13782948 141.0625 426.50732422 C145.53306161 428.04021459 150.00729991 429.56196029 154.4836731 431.07778931 C157.04379809 431.94911909 159.59883826 432.83436313 162.15405273 433.7199707 C163.7300604 434.25495581 165.30630193 434.78925262 166.8828125 435.32275391 C167.59586548 435.57421173 168.30891846 435.82566956 169.0435791 436.08474731 C172.95650095 437.39017961 175.76333481 438.25758994 179.63671875 436.64697266 C181.93071035 434.7882944 183.98092255 432.95829814 186.06640625 430.88916016 C186.6609964 430.30788361 187.25558655 429.72660706 187.86819458 429.12771606 C189.11886892 427.89725273 190.36420405 426.66134193 191.60449219 425.42041016 C193.5057776 423.52788643 195.43671897 421.66964856 197.37109375 419.81103516 C198.58398437 418.60987915 199.79498867 417.40681479 201.00390625 416.20166016 C201.87400833 415.37467117 201.87400833 415.37467117 202.76168823 414.53097534 C205.46546396 411.7637597 206.62865216 410.26157408 206.68017578 406.3359375 C205.4169448 401.86999923 204.07343332 397.46121225 202.57421875 393.06884766 C202.26662125 392.15198685 201.95902374 391.23512604 201.6421051 390.29048157 C200.98495632 388.33428345 200.32505566 386.37900796 199.66262817 384.42459106 C198.63102387 381.38016617 197.60735017 378.33317662 196.58569336 375.28540039 C193.85382955 367.14372172 191.10764608 359.00704006 188.32437134 350.88278198 C187.66877265 348.96748576 187.01691903 347.05090886 186.36523438 345.13427734 C185.61042807 342.9172709 184.84790128 340.70287173 184.07617188 338.49169922 C181.90988065 332.12212472 180.34081041 327.25178572 183.07397461 320.82202148 C185.80140223 315.54360775 189.94017638 313.60756686 195.11328125 311.03759766 C196.07400543 310.53754211 197.03472961 310.03748657 198.02456665 309.52227783 C201.21607687 307.87130744 204.42465166 306.25754485 207.63671875 304.64697266 C209.92445413 303.48415219 212.21188307 302.32072864 214.49902344 301.15673828 C221.04320662 297.84091622 227.60818831 294.56800325 234.1796875 291.30682373 C237.2932077 289.76054023 240.40431423 288.20941442 243.515625 286.65869141 C249.55350451 283.64974152 255.59513546 280.64852359 261.63671875 277.64697266 C261.63671875 263.78697266 261.63671875 249.92697266 261.63671875 235.64697266 C257.65867187 233.66955078 253.680625 231.69212891 249.58203125 229.65478516 C247.02060468 228.37919809 244.45930677 227.10336422 241.8984375 225.82666016 C237.85843292 223.81257166 233.81805125 221.79927455 229.77490234 219.79150391 C222.15966138 216.00886838 214.55793029 212.20150432 206.97912598 208.34631348 C204.86560196 207.2717593 202.74961083 206.20203197 200.63024902 205.13903809 C198.07470089 203.85066644 195.53720933 202.53310634 193.00390625 201.20166016 C192.29460968 200.8499173 191.58531311 200.49817444 190.85452271 200.13577271 C186.51890821 197.79574806 184.42143068 195.3336169 182.25271606 190.92044067 C180.63346843 184.94426573 181.95201709 179.71083972 183.94750977 174.03100586 C184.19295532 173.30489105 184.43840088 172.57877625 184.69128418 171.83065796 C185.22189764 170.26531878 185.75735432 168.70161454 186.29718208 167.13942909 C187.15127878 164.66691238 187.99194985 162.19018392 188.82933044 159.71195984 C190.60753733 154.45709328 192.4021931 149.20792853 194.19921875 143.95947266 C196.28556844 137.86565426 198.36510266 131.76968709 200.42704582 125.66756248 C201.2556233 123.2272112 202.09673064 120.79141678 202.93836975 118.35554504 C203.44463969 116.86215838 203.95032254 115.36857253 204.45532227 113.87475586 C204.692686 113.19882889 204.93004974 112.52290192 205.17460632 111.82649231 C206.72942226 107.21366542 206.72942226 107.21366542 205.63671875 102.64697266 C203.77194695 100.43078991 201.90394202 98.37452341 199.87890625 96.31494141 C199.00699142 95.42093376 199.00699142 95.42093376 198.11746216 94.50886536 C196.88587001 93.25334589 195.64998586 92.00202429 194.41015625 90.75463867 C192.51972672 88.84257228 190.66060459 86.90321328 188.80078125 84.96142578 C187.59947791 83.74413057 186.39640879 82.52857489 185.19140625 81.31494141 C184.64008026 80.7317363 184.08875427 80.14853119 183.52072144 79.5476532 C180.89203297 76.96342307 179.30072122 75.67398221 175.5637207 75.52197266 C174.24157461 75.84760653 172.93375289 76.23247279 171.63671875 76.64697266 C170.69727417 76.93091385 169.75782959 77.21485504 168.78991699 77.50740051 C165.25909833 78.61636652 161.75505913 79.79117744 158.25 80.97900391 C156.94371457 81.41692596 155.63724847 81.85430941 154.33061218 82.29118347 C150.8992094 83.44005377 147.47026556 84.596095 144.04180908 85.75372314 C140.5885501 86.91837339 137.13306693 88.07638265 133.67773438 89.23486328 C128.58250208 90.94384954 123.48855676 92.65659155 118.39575195 94.37280273 C116.69849472 94.94062973 116.69849472 94.94062973 114.96694946 95.51992798 C112.74095065 96.27326921 110.52061988 97.04356395 108.3062439 97.83041382 C107.25925323 98.19744415 106.21226257 98.56447449 105.13354492 98.94262695 C103.7575135 99.43547432 103.7575135 99.43547432 102.35368347 99.9382782 C96.794736 101.38827688 92.52140289 100.82444625 87.55456543 98.11798096 C83.8384169 95.26765648 82.07572675 91.29361134 80.02734375 87.17041016 C79.52728821 86.20968597 79.02723267 85.24896179 78.51202393 84.25912476 C76.86105353 81.06761454 75.24729094 77.85903975 73.63671875 74.64697266 C72.47389828 72.35923727 71.31047474 70.07180834 70.14648438 67.78466797 C66.83066231 61.24048478 63.55774934 54.6755031 60.29656982 48.10400391 C58.75028632 44.99048371 57.19916051 41.87937718 55.6484375 38.76806641 C52.63948762 32.7301869 49.63826968 26.68855595 46.63671875 20.64697266 C32.77671875 20.64697266 18.91671875 20.64697266 4.63671875 20.64697266 Z "
        fill="#293C4E" transform="translate(230.36328125,-0.64697265625)" />
    <path
        d="M0 0 C22.4900825 19.19885092 38.94425668 44.6693048 41.4375 74.75 C43.1055931 108.32831009 36.12553968 137.09381176 13.4375 162.75 C-4.24320419 182.23202985 -30.29056573 197.23416488 -56.94335938 198.97021484 C-92.33421771 200.28715033 -120.7004606 191.89658684 -147.30859375 168.31640625 C-158.27499273 157.89747181 -165.97353492 145.24971683 -172.5625 131.75 C-172.97242188 130.91339844 -173.38234375 130.07679688 -173.8046875 129.21484375 C-184.78066727 104.41253288 -183.76532392 72.40234218 -174.12890625 47.34765625 C-161.01233469 17.2220642 -139.43413296 -4.47086405 -109.10449219 -17.26074219 C-72.91649869 -31.34389141 -30.12976219 -23.89162833 0 0 Z "
        fill="#E6E3F2" transform="translate(325.5625,168.25)" />
    <path
        d="M0 0 C24.33138698 21.55414494 42.93850215 52.29669612 45.765625 85.265625 C47.93511994 121.49685403 39.43556787 156.20680208 15.765625 184.265625 C15.02441406 185.14734375 14.28320312 186.0290625 13.51953125 186.9375 C-7.75265659 211.35690993 -38.63297037 228.86184646 -71.171875 231.890625 C-111.72069283 234.51437204 -145.59120978 223.80546735 -176.296875 196.890625 C-200.04276779 175.19179194 -216.49350114 143.48222798 -218.42089844 111.13525391 C-218.85723375 99.11079028 -218.73769944 87.07107547 -216.234375 75.265625 C-215.96625 73.98945313 -215.698125 72.71328125 -215.421875 71.3984375 C-208.21726123 39.23567598 -188.55818866 9.59338508 -161.11328125 -8.91796875 C-110.27128058 -40.99602887 -46.50383868 -40.01493096 0 0 Z M-169.58203125 25.21484375 C-192.90538839 51.32282121 -198.89933755 82.16013134 -197.234375 116.265625 C-194.68537189 143.03247912 -177.83144744 169.54583547 -157.68164062 186.578125 C-131.75888643 207.77396583 -100.37319354 214.2720835 -67.45898438 210.98876953 C-40.72423146 207.24611647 -14.2881109 190.11705328 2.1796875 169.19921875 C7.82537979 161.29330944 12.46622842 152.9623543 16.765625 144.265625 C17.17683594 143.4509375 17.58804688 142.63625 18.01171875 141.796875 C28.70819623 118.15641115 27.5530468 87.4957056 19.640625 63.265625 C8.26239543 33.68222811 -12.37749127 10.94531148 -41.29077148 -2.22827148 C-46.51332109 -4.51801436 -51.69717564 -6.36128301 -57.234375 -7.734375 C-58.16056641 -7.98485596 -59.08675781 -8.23533691 -60.04101562 -8.4934082 C-68.28747196 -10.59983999 -75.99205471 -11.2074178 -84.484375 -11.109375 C-86.38908569 -11.0952356 -86.38908569 -11.0952356 -88.33227539 -11.08081055 C-120.10245915 -10.57221203 -147.62956464 2.42425066 -169.58203125 25.21484375 Z "
        fill="#2B3E50" transform="translate(342.234375,155.734375)" />
    <path
        d="M0 0 C4.25612161 3.16588356 7.47103297 7.75630341 8.50292969 12.97680664 C8.69388322 15.24778972 8.74385383 17.46351223 8.7109375 19.7421875 C8.7018335 20.5372168 8.69272949 21.33224609 8.68334961 22.15136719 C8.42443877 28.74108736 7.04204785 33.27744259 2.0859375 37.8671875 C-5.84283852 44.56941253 -13.78731657 46.21851707 -23.9140625 45.9921875 C-27.8740625 45.9303125 -27.8740625 45.9303125 -31.9140625 45.8671875 C-31.9140625 56.4271875 -31.9140625 66.9871875 -31.9140625 77.8671875 C-35.2140625 77.8671875 -38.5140625 77.8671875 -41.9140625 77.8671875 C-41.9140625 51.1371875 -41.9140625 24.4071875 -41.9140625 -3.1328125 C-28.17431264 -6.56774997 -12.63520448 -7.47797816 0 0 Z "
        fill="#2D3F51" transform="translate(300.9140625,219.1328125)" />
    <path
        d="M0 0 C4.62 0 9.24 0 14 0 C14.67579102 2.00231689 15.35158203 4.00463379 16.04785156 6.06762695 C18.29380768 12.72160154 20.5411821 19.37509648 22.78923416 26.02836323 C24.15068945 30.05782597 25.51168308 34.08744336 26.87158203 38.11743164 C28.18670104 42.01465868 29.50308446 45.9114566 30.82030487 49.80797386 C31.31984224 51.28638021 31.81894214 52.76493447 32.31757355 54.24364662 C33.02204154 56.33251588 33.72794605 58.42089248 34.43457031 60.5090332 C34.76450674 61.48620285 34.76450674 61.48620285 35.10110855 62.48311329 C36.73206321 67.28554696 38.48085412 72.0357791 40.31561279 76.76383972 C41 79 41 79 41 83 C37.37 83 33.74 83 30 83 C28.66100575 79.23108983 27.32859288 75.46007538 26 71.6875 C25.6184375 70.61564453 25.236875 69.54378906 24.84375 68.43945312 C24.4828125 67.41142578 24.121875 66.38339844 23.75 65.32421875 C23.41484375 64.37635498 23.0796875 63.42849121 22.734375 62.4519043 C22 60 22 60 22 57 C11.77 57 1.54 57 -9 57 C-9.66 59.97 -10.32 62.94 -11 66 C-11.82272873 68.85007585 -12.66435573 71.67497649 -13.5625 74.5 C-13.78357422 75.21414063 -14.00464844 75.92828125 -14.23242188 76.6640625 C-15.87060073 81.87060073 -15.87060073 81.87060073 -17 83 C-18.85287502 83.07226502 -20.70833878 83.0838122 -22.5625 83.0625 C-24.08037109 83.04896484 -24.08037109 83.04896484 -25.62890625 83.03515625 C-26.41136719 83.02355469 -27.19382813 83.01195312 -28 83 C-26.03899488 76.34824506 -23.96746896 69.74374194 -21.77734375 63.1640625 C-21.47531036 62.25390884 -21.17327698 61.34375519 -20.86209106 60.40602112 C-19.88931718 57.47831383 -18.91373693 54.55155423 -17.9375 51.625 C-17.60595917 50.6296524 -17.27441833 49.63430481 -16.93283081 48.60879517 C-11.50438357 32.32476407 -5.89172945 16.12254435 0 0 Z "
        fill="#304355" transform="translate(205,215)" />
    <path
        d="M0 0 C3.63 0 7.26 0 11 0 C11 27.39 11 54.78 11 83 C7.37 83 3.74 83 0 83 C0 55.61 0 28.22 0 0 Z "
        fill="#2F4254" transform="translate(324,215)" />
    <path
        d="M0 0 C0.75603516 -0.020625 1.51207031 -0.04125 2.29101562 -0.0625 C7.9326841 -0.10164427 12.17367499 0.78667879 16.45703125 4.78515625 C20.86069153 10.54378893 21.4196044 14.07512984 20.8125 21.25 C18.60913097 27.51220672 15.08750375 30.1324543 9.25 33 C3.93866401 34.86861534 -1.62989863 34.69460811 -7.1875 34.25 C-7.8475 33.92 -8.5075 33.59 -9.1875 33.25 C-9.21215392 28.71102295 -9.23033789 24.17208457 -9.24243164 19.63305664 C-9.2474714 18.08780234 -9.2543032 16.54255284 -9.26293945 14.99731445 C-9.27502076 12.78074971 -9.28073173 10.56424782 -9.28515625 8.34765625 C-9.29031754 7.6528566 -9.29547882 6.95805695 -9.30079651 6.24220276 C-9.30099277 4.5777067 -9.24939129 2.91334501 -9.1875 1.25 C-7.10837421 -0.82912579 -2.85404059 0.01897949 0 0 Z "
        fill="#E1DFEE" transform="translate(278.1875,222.75)" />
    <path
        d="M0 0 C2.5636412 2.5636412 2.83252142 4.55757086 3.75 8.0625 C5.52956842 14.58758421 7.6731078 20.90083904 10.06933594 27.22485352 C11.52175197 31.16852755 12 33.69126643 12 38 C4.41 38 -3.18 38 -11 38 C-10.31686514 33.21805595 -9.67789062 29.52040072 -8.22265625 25.05859375 C-7.87396484 23.98029297 -7.52527344 22.90199219 -7.16601562 21.79101562 C-6.80185547 20.68435547 -6.43769531 19.57769531 -6.0625 18.4375 C-5.70220703 17.32697266 -5.34191406 16.21644531 -4.97070312 15.07226562 C-3.33570129 10.0407959 -1.67577446 5.01803159 0 0 Z "
        fill="#E1DEED" transform="translate(211,225)" />
</svg>